<svg height="480pt" viewBox="0 0 480 480" width="480pt" xmlns="http://www.w3.org/2000/svg"><path d="m472 240c0 128.128906-103.871094 232-232 232s-232-103.871094-232-232 103.871094-232 232-232 232 103.871094 232 232zm0 0" fill="#c6c5ca"/><path d="m248 224v112h144v-192zm0 0" fill="#3d9ae2"/><path d="m248 88v304l-160-16v-272zm0 0" fill="#57a4ff"/><path d="m216 240c0-39.765625-21.492188-72-48-72s-48 32.234375-48 72 21.492188 72 48 72 48-32.234375 48-72zm0 0" fill="#fff"/><path d="m248 226.480469 24 13.519531 120-66.640625v-29.359375h-144zm0 0" fill="#006df0"/><g fill="#231f20"><path d="m256 136v-56.800781l-176 17.601562v286.480469l176 17.597656v-56.878906h144v-208zm128 16v16.65625l-112 62.175781-16-9.03125v-69.800781zm-144 231.199219-144-14.398438v-257.5625l144-14.398437zm16-55.199219v-87.832031l16 9 112-62.214844v141.046875zm0 0"/><path d="m240 0c-132.546875 0-240 107.453125-240 240s107.453125 240 240 240 240-107.453125 240-240c-.148438-132.484375-107.515625-239.851562-240-240zm0 464c-123.710938 0-224-100.289062-224-224s100.289062-224 224-224 224 100.289062 224 224c-.140625 123.652344-100.347656 223.859375-224 224zm0 0"/><path d="m168 160c-31.398438 0-56 35.144531-56 80s24.601562 80 56 80 56-35.144531 56-80-24.601562-80-56-80zm0 144c-21.679688 0-40-29.304688-40-64s18.320312-64 40-64 40 29.304688 40 64-18.320312 64-40 64zm0 0"/></g></svg>